<svg  version="1.0" xmlns="http://www.w3.org/2000/svg"  width="300.000000pt" height="274.000000pt" viewBox="0 0 300.000000 274.000000"  preserveAspectRatio="xMidYMid meet">
	<g transform="translate(0.000000,274.000000) scale(0.050000,-0.050000)" fill="#e5c07b7F" stroke="none">
		<path d="M3732 5025 c-50 -76 -944 -1592 -1020 -1730 l-42 -75 -405 0 -405 0 0 51 c0 29 13 65 30 82 42 42 38 154 -7 194 -121 110 -304 -52 -209 -186 18 -27 34 -69 35 -95 l2 -46 -432 0 c-456 0 -511 -10 -496 -91 4 -23 34 -48 71 -59 l63 -21 -174 -424 c-153 -374 -178 -424 -218 -425 -53 0 -53 -2 -18 -87 91 -218 406 -340 671 -262 194 58 441 348 297 349 -46 1 -62 36 -360 774 l-34 86 315 0 316 0 5 -1000 5 -1000 -211 0 c-209 0 -291 -27 -291 -96 0 -10 -34 -25 -75 -35 -61 -16 -76 -29 -81 -74 l-7 -55 542 0 541 0 0 -350 0 -350 100 0 100 0 1 195 1 195 484 511 c1811 1913 1734 1823 1734 2023 0 171 -37 238 -244 437 -201 193 -252 219 -438 219 l-111 0 -497 -835 c-273 -459 -592 -997 -708 -1194 l-212 -359 -5 491 -6 491 137 228 c75 125 423 716 773 1313 l638 1085 383 0 c398 0 490 -22 490 -117 0 -11 52 -48 115 -83 274 -153 276 -209 10 -227 -242 -17 -360 -132 -315 -309 7 -30 57 -241 111 -468 l97 -415 -17 -303 -17 -303 -367 -373 c-202 -204 -478 -485 -612 -624 l-245 -252 0 -383 0 -383 -120 0 -120 0 -1 245 -1 245 -99 -110 -99 -110 0 -235 0 -235 284 0 c245 0 295 -6 368 -41 62 -30 115 -39 198 -35 l113 6 -61 84 c-39 53 -96 100 -161 129 l-101 47 0 347 0 348 555 570 c750 769 663 636 684 1047 l18 344 -109 460 c-71 300 -102 468 -90 480 49 49 310 41 415 -13 l102 -51 11 82 c30 227 -55 439 -216 536 -64 39 -148 102 -186 140 -168 167 -137 160 -658 160 l-465 0 -49 -75z m452 -1721 c295 -296 338 -211 -624 -1236 -1255 -1336 -1209 -1290 -1216 -1236 -4 27 23 96 61 162 38 64 242 409 455 766 212 358 529 891 703 1185 387 651 350 630 621 359z m-1624 -255 c0 -6 -94 -171 -210 -366 l-210 -356 0 -633 0 -634 -140 0 -140 0 0 1000 0 1000 350 0 c193 0 350 -5 350 -11z m-1400 -451 c83 -198 153 -369 157 -380 4 -10 -129 -18 -317 -18 -252 0 -322 6 -314 25 5 14 68 165 139 335 71 171 136 330 144 355 24 77 37 55 191 -317z"/>
		<path d="M4199 4701 c56 -103 158 -126 232 -52 78 78 63 91 -102 91 -143 0 -149 -2 -130 -39z"/>
	</g>
</svg>